# xmcd
#
# Track frame offsets:
#	150
#	32885
#	57150
#	77035
#	103913
#	121933
#	163132
#	188260
#
# Disc length: 2892 seconds
#
# Revision: 1
# Processed by: cddbd v1.5.1PL0 Copyright (c) Steve Scherf et al.
# Submitted via: audiograbber 1.82.02
#
DISCID=600b4a08
DTITLE=The Incredible Southern South Band - "Blues Barique" live
DYEAR=2000
DGENRE=Blues
TTITLE0=Satisfied
TTITLE1=Good Time
TTITLE2=Anything you want me to do
TTITLE3=Tobacco Road
TTITLE4=Falling back in love with you
TTITLE5=Straighten it out
TTITLE6=Bad condition
TTITLE7=Brother Jake
EXTD=
EXTT0=
EXTT1=
EXTT2=
EXTT3=
EXTT4=
EXTT5=
EXTT6=
EXTT7=
PLAYORDER=
